<?xml version="1.0" encoding="UTF-8"?>
<svg width="16px" height="16px" viewBox="0 0 16 16" version="1.1" xmlns="http://www.w3.org/2000/svg" xmlns:xlink="http://www.w3.org/1999/xlink">
    <!-- Generator: Sketch 49.3 (51167) - http://www.bohemiancoding.com/sketch -->
    <title>Icon/Subway Line/Blue/Small</title>
    <desc>Created with Sketch.</desc>
    <defs></defs>
    <g id="Icon/Subway-Line/Blue/Small" stroke="none" stroke-width="1" fill="none" fill-rule="evenodd">
        <g id="icon-blue-line-small" fill-rule="nonzero">
            <path d="M8,0 C3.581722,-2.705415e-16 5.41083001e-16,3.581722 0,8 C-5.41083001e-16,12.418278 3.581722,16 8,16 C12.418278,16 16,12.418278 16,8 C16,3.581722 12.418278,2.04689834e-15 8,1.77635684e-15" id="Shape" fill="#003DA5"></path>
            <path d="M5.45,4.25 C5.77805327,4.24710795 6.10549705,4.2788166 6.4269,4.3446 C6.69678933,4.3976721 6.9537048,4.50297925 7.1832,4.6546 C7.39381648,4.7988532 7.56238543,4.99640841 7.6717,5.2271 C7.79518051,5.50435887 7.85442208,5.80593365 7.845,6.1093 C7.85734703,6.44332295 7.76751671,6.7731659 7.5875,7.0548 C7.39344942,7.32567076 7.13050233,7.53972958 6.8259,7.6748 C7.24268806,7.77697523 7.60936034,8.02447282 7.86,8.3728 C8.09439254,8.72929672 8.21353952,9.14922612 8.2013,9.5757 C8.21000279,9.9161926 8.13442933,10.2535594 7.9813,10.5578 C7.84009999,10.8276073 7.63660735,11.0598618 7.3877,11.2353 C7.12957938,11.4147254 6.84133957,11.546347 6.5367,11.6239 C6.21618679,11.7081696 5.88610575,11.7505558 5.5547,11.75 L1.92,11.7500054 L1.92,4.25 L5.45,4.25 Z M5.24,7.2857 C5.49802067,7.29648477 5.75250971,7.22275036 5.9648,7.0757 C6.16616545,6.90880039 6.27230158,6.65335539 6.2485,6.3929 C6.25437744,6.24362338 6.22187555,6.0953335 6.1541,5.9622 C6.09433425,5.85410669 6.0071403,5.76367056 5.9013,5.7 C5.7894114,5.63457321 5.66653826,5.59007998 5.5387,5.5687 C5.3983312,5.54390324 5.25604187,5.53158845 5.1135,5.5319 L3.5692,5.53189423 L3.5692,7.2857 L5.24,7.2857 Z M5.3345,10.4685 C5.48983619,10.4690673 5.64479719,10.4532125 5.7968,10.4212 C5.93507186,10.3933521 6.06693028,10.3399372 6.1856,10.2637 C6.29896742,10.1881776 6.39112374,10.084902 6.4533,9.9637 C6.52526884,9.81310712 6.55958572,9.64728794 6.5533,9.4805 C6.58399126,9.16921193 6.46268654,8.86222684 6.2275,8.656 C5.97521291,8.48098707 5.67205528,8.39448112 5.3654,8.41 L3.5692,8.41 L3.5692,10.4689 L5.3345,10.4685 Z M10.9645,4.25 L10.9645,10.3634 L14.62,10.3634 L14.62,11.75 L9.315,11.75 L9.315,4.25 L10.9645,4.25 Z" id="Shape" fill="#FFFFFF"></path>
        </g>
    </g>
</svg>