<?xml version="1.0" encoding="UTF-8"?>
<svg width="24px" height="24px" viewBox="0 0 24 24" version="1.1" xmlns="http://www.w3.org/2000/svg" xmlns:xlink="http://www.w3.org/1999/xlink">
    <!-- Generator: Sketch 49.3 (51167) - http://www.bohemiancoding.com/sketch -->
    <title>Icon/Mode/Bus/Default</title>
    <desc>Created with Sketch.</desc>
    <defs></defs>
    <g id="Icon/Mode/Bus/Default" stroke="none" stroke-width="1" fill="none" fill-rule="evenodd">
        <g id="icon-mode-bus-default" fill-rule="nonzero">
            <path d="M12.0622422,23.9998247 C18.7842173,23.8273272 24.1718257,18.362156 23.9958065,11.9359987 C23.8143382,5.31099428 18.5601065,-0.0348286135 11.9339146,0.000170881706 C5.30765566,0.0356132443 -0.035261421,5.43685047 0.000175259517,12.0641719 C0.03561194,18.6914933 5.43598324,24.0352671 12.0622422,23.9998247" id="Shape" fill="#FFC72C"></path>
            <path d="M18.565063,10.6679776 L17.9061199,5.49824901 C17.7387587,4.56542277 17.1492106,4.20141862 16.2720442,3.81967158 C14.8347165,3.30622934 13.3192263,3.02920242 11.7879883,3 C10.254407,3.02952714 8.73656776,3.30653188 7.29662237,3.81967158 C6.43036969,4.1942215 5.84077012,4.56527283 5.66244366,5.49809907 L5,10.6679776 L5,17.8201119 L6.16288,17.8201119 L6.16288,19.0657128 C6.16446374,19.5774042 6.59140217,19.9917915 7.11845036,19.9931912 C7.64546658,19.9916816 8.07231134,19.5772736 8.07386627,19.0656129 L8.07386627,17.8200119 L15.5261001,17.8200119 L15.5261001,19.0656129 C15.5235823,19.398618 15.7051259,19.7073787 16.0017592,19.8745909 C16.2983924,20.041803 16.6645881,20.041803 16.9612213,19.8745909 C17.2578546,19.7073787 17.4393982,19.398618 17.4368804,19.0656129 L17.4368804,17.8200119 L18.5652174,17.8200119 L18.565063,10.6679776 Z M8.99633503,4.30742614 L14.6014692,4.30742614 C14.8386738,4.30742614 15.0309662,4.49411576 15.0309662,4.72440907 C15.0309662,4.95470238 14.8386738,5.14139199 14.6014692,5.14139199 L8.99633503,5.14139199 C8.75913038,5.14139199 8.56683802,4.95470238 8.56683802,4.72440907 C8.56683802,4.49411576 8.75913038,4.30742614 8.99633503,4.30742614 Z M6.20473318,10.5160385 L6.75042038,6.4346738 C6.79595581,6.17734638 7.02719007,5.99018799 7.29610757,5.99300077 L16.3484919,5.99300077 C16.6166951,5.99028166 16.8469054,6.17777868 16.8907814,6.4346738 L17.4364686,10.5160385 C17.4437788,10.5628857 17.4437788,10.6105347 17.4364686,10.6573819 L17.4364686,10.6856205 C17.437139,10.8260306 17.379754,10.9608309 17.2771743,11.0598111 C17.1745946,11.1587913 17.0353984,11.213674 16.8907814,11.2121596 L6.72519522,11.2121596 C6.58032189,11.2058147 6.44400859,11.1437434 6.34635622,11.0396525 C6.24870385,10.9355616 6.19774525,10.7980136 6.20473318,10.6573819 C6.19747429,10.6105309 6.19747429,10.5628894 6.20473318,10.5160385 Z M7.11845036,15.6079983 C6.55663547,15.6089909 6.10035757,15.1676396 6.09930606,14.6221941 C6.09825456,14.0767487 6.55282759,13.6337423 7.11464236,13.6326932 C7.67645714,13.631644 8.13278214,14.0729494 8.13389186,14.6183948 C8.134589,14.8804115 8.02795255,15.1319461 7.83748028,15.3175718 C7.64700801,15.5031974 7.38833122,15.6076807 7.11845036,15.6079983 Z M16.4796627,15.6079983 C15.9183506,15.6069217 15.4640082,15.1646539 15.4643779,14.6196955 C15.4647475,14.0747372 15.9196894,13.6330507 16.4810025,13.6326919 C17.0423156,13.632333 17.4978563,14.0734373 17.4989652,14.6183948 C17.499665,14.8810876 17.392478,15.1332148 17.2011363,15.3189532 C17.0097947,15.5046917 16.7500847,15.6087174 16.4795083,15.6079983 L16.4796627,15.6079983 Z" id="Shape" fill="#1C1E23"></path>
        </g>
    </g>
</svg>