<?xml version="1.0" encoding="UTF-8"?>
<svg width="16px" height="16px" viewBox="0 0 16 16" version="1.1" xmlns="http://www.w3.org/2000/svg" xmlns:xlink="http://www.w3.org/1999/xlink">
    <!-- Generator: Sketch 49.3 (51167) - http://www.bohemiancoding.com/sketch -->
    <title>Icon/Mode/Commuter Rail/Small</title>
    <desc>Created with Sketch.</desc>
    <defs></defs>
    <g id="Icon/Mode/Commuter-Rail/Small" stroke="none" stroke-width="1" fill="none" fill-rule="evenodd">
        <g id="icon-mode-commuter-rail-small" transform="translate(-1.000000, 0.000000)" fill-rule="nonzero">
            <polygon id="Shape" fill="#80276C" transform="translate(9.005037, 12.420036) rotate(2.299900) translate(-9.005037, -12.420036) " points="7.1900365 11.9200364 10.8200365 11.9200364 10.8200365 12.9200364 7.1900365 12.9200364"></polygon>
            <path d="M9,-8.54667009e-16 C6.45701809,0.0031686737 4.06617688,1.21198514 2.55609361,3.25805835 C1.04601034,5.30413156 0.595590083,7.94505574 1.3421,10.376 C2.08772356,12.9216146 4.07838545,14.9122764 6.624,15.6579 C9.6314886,16.5888246 12.9054028,15.6711743 14.9909083,13.3127267 C17.0764139,10.9542791 17.5865189,7.59267396 16.2945473,4.72171287 C15.0025757,1.85075177 12.1482691,0.00317770144 9,-5.3e-15" id="Shape" fill="#80276C"></path>
            <g id="Group" transform="translate(4.000000, 1.000000)" fill="#FFFFFF">
                <path d="M7.33,10.75 L8.48,9.9 C8.74504864,9.68837386 8.92876288,9.3916047 9,9.06 L9,4.24 C8.99834862,3.98736099 8.88925862,3.74736299 8.7,3.58 C8.51244357,3.43616776 8.39879073,3.21619452 8.39,2.98 L8.38,1.79 C8.37430265,1.40722372 8.10451047,1.07932245 7.73,1 C6.90803528,0.775910961 6.07314639,0.602254072 5.23,0.48 C5.07528899,0.444992257 4.91471101,0.444992257 4.76,0.48 C4.06,0.63 3.21,0.78 2.52,0.96 C2.1,1.08 1.67,1.31 1.67,1.81 L1.67,2.99 C1.65800598,3.23280261 1.53666425,3.45710096 1.34,3.6 C1.14287332,3.7623434 1.02907168,4.00463077 1.03,4.26 L1.03,9.06 C1.08592546,9.38784706 1.25594007,9.68537263 1.51,9.9 L2.61,10.71 L0.87,13.55 L2,13.55 L2.24,13.16 L7.77,13.16 L7.9,13.38 L7.92,13.41 L8,13.55 L9.05,13.55 L7.33,10.75 Z M8.28,8.45 C8.28,8.85316787 7.95316787,9.18 7.55,9.18 C7.14683213,9.18 6.82,8.85316787 6.82,8.45 C6.82,8.04683213 7.14683213,7.72 7.55,7.72 C7.74379546,7.71938651 7.92983048,7.79609998 8.06686525,7.93313475 C8.20390002,8.07016952 8.28061349,8.25620454 8.28,8.45 Z M6.84,11.6 L3.19,11.6 L3.6,10.92 L6.44,10.92 L6.47,10.98 L6.82,11.56 L6.84,11.6 Z M5.7,1.95 C5.69950047,1.8750934 5.73333815,1.80408443 5.79183168,1.7572896 C5.85032521,1.71049478 5.92703004,1.69306974 6,1.71 L7.21,1.96 C7.32389805,1.98453357 7.40640761,2.08354504 7.41,2.2 L7.41,2.93 C7.40853379,3.00420147 7.37417548,3.07391585 7.31622255,3.12027819 C7.25826963,3.16664053 7.18271353,3.18485768 7.11,3.17 L5.9,2.93 C5.78271714,2.91123452 5.69730849,2.80874413 5.7,2.69 L5.7,1.95 Z M4.98,4.21 C5.43287349,4.21 5.8,4.57712651 5.8,5.03 C5.8,5.48287349 5.43287349,5.85 4.98,5.85 C4.52712651,5.85 4.16,5.48287349 4.16,5.03 C4.16202597,4.57796835 4.52796835,4.21202597 4.98,4.21 Z M2.66,2.2 C2.66359239,2.08354504 2.74610195,1.98453357 2.86,1.96 L4.07,1.71 C4.14278227,1.69461282 4.21863046,1.71262818 4.27672009,1.75909988 C4.33480972,1.80557159 4.36903529,1.87561523 4.37,1.95 L4.37,2.69 C4.36885578,2.80736949 4.28523907,2.90770954 4.17,2.93 L2.95,3.17 C2.87855323,3.18317006 2.80494246,3.16401895 2.74897295,3.11769936 C2.69300344,3.07137976 2.6604239,3.00264923 2.66,2.93 L2.66,2.2 Z M2.46,9.18 C2.16474256,9.18 1.89855807,9.00214121 1.78556794,8.72935891 C1.67257781,8.4565766 1.73503351,8.14259059 1.94381205,7.93381205 C2.15259059,7.72503351 2.4665766,7.66257781 2.73935891,7.77556794 C3.01214121,7.88855807 3.19,8.15474256 3.19,8.45 C3.19061349,8.64379546 3.11390002,8.82983048 2.97686525,8.96686525 C2.83983048,9.10390002 2.65379546,9.18061349 2.46,9.18 Z M2.46,12.79 L2.96,11.97 L7.06,11.97 L7.55,12.79 L2.46,12.79 Z" id="Shape"></path>
                <polygon id="Shape" points="8 13.55 7.99 13.55 7.92 13.41"></polygon>
            </g>
        </g>
    </g>
</svg>