<?xml version="1.0" encoding="UTF-8"?>
<svg width="16px" height="16px" viewBox="0 0 16 16" version="1.1" xmlns="http://www.w3.org/2000/svg" xmlns:xlink="http://www.w3.org/1999/xlink">
    <!-- Generator: Sketch 49.3 (51167) - http://www.bohemiancoding.com/sketch -->
    <title>Icon/Subway Line/Green/Small</title>
    <desc>Created with Sketch.</desc>
    <defs></defs>
    <g id="Icon/Subway-Line/Green/Small" stroke="none" stroke-width="1" fill="none" fill-rule="evenodd">
        <g id="icon-green-line-small" fill-rule="nonzero">
            <path d="M8,0 C3.581722,-2.705415e-16 5.41083001e-16,3.581722 0,8 C-5.41083001e-16,12.418278 3.581722,16 8,16 C12.418278,16 16,12.418278 16,8 C16,3.581722 12.418278,2.04689834e-15 8,1.77635684e-15" id="Shape" fill="#00843D"></path>
            <g id="Group" transform="translate(1.000000, 4.000000)" fill="#FFFFFF">
                <path d="M5.083,7.5338 C4.75633585,7.67486304 4.40451695,7.74840383 4.0487,7.75 C3.54072018,7.75787541 3.0366204,7.66039228 2.5682,7.4637 C2.1456522,7.28410761 1.76698281,7.01518412 1.4582,6.6754 C1.15187652,6.33177528 0.916619793,5.9309008 0.766,5.4959 C0.602265067,5.02644194 0.520670685,4.53227497 0.5248,4.0351 C0.520140146,3.52808899 0.601701934,3.02397492 0.766,2.5443 C0.916682574,2.10317425 1.15178755,1.69559556 1.4582,1.3443 C1.7654453,0.999145297 2.14423918,0.725116934 2.5682,0.5413 C3.0357675,0.341309024 3.5402193,0.242054171 4.0487,0.25 C4.41181593,0.249220054 4.77282826,0.305126356 5.1187,0.4157 C5.45580194,0.522386647 5.77168099,0.687128372 6.0521,0.9025 C6.64208658,1.35602788 7.01242986,2.03818181 7.0714,2.78 L5.5654,2.78 C5.49901842,2.42349833 5.30655874,2.10279136 5.0232,1.8765 C4.74072122,1.67084999 4.39795952,1.56480314 4.0487,1.575 C3.73506761,1.56551621 3.4242202,1.63639493 3.1457,1.7809 C2.90284567,1.91340838 2.69589011,2.10303184 2.5427,2.3334 C2.38476439,2.57397647 2.27089002,2.84073301 2.2064,3.1212 C2.13605676,3.42069123 2.10085268,3.72735938 2.1015,4.035 C2.10104434,4.33095136 2.13626506,4.62587868 2.2064,4.9134 C2.27204351,5.18738836 2.38591855,5.4475097 2.5427,5.6816 C2.69707067,5.9095519 2.90385175,6.09716371 3.1457,6.2287 C3.42413215,6.3734451 3.73504291,6.44433826 4.0487,6.4346 C4.48804196,6.46303612 4.92143194,6.3209845 5.2587,6.038 C5.56271757,5.73054591 5.74013778,5.32009883 5.7558,4.888 L4.1693,4.888 L4.1693,3.714 L7.1812,3.714 L7.1812,7.5892 L6.1772,7.5892 L6.0164,6.7759 C5.77605195,7.10500887 5.45444575,7.36614593 5.083,7.5338 Z" id="Shape"></path>
                <polygon id="Shape" points="10.0324 0.4206 10.0324 6.2641 13.5267 6.2641 13.5267 7.5892 8.4567 7.5892 8.4567 0.4206"></polygon>
            </g>
        </g>
    </g>
</svg>