<?xml version="1.0" encoding="UTF-8"?>
<svg width="16px" height="16px" viewBox="0 0 16 16" version="1.1" xmlns="http://www.w3.org/2000/svg" xmlns:xlink="http://www.w3.org/1999/xlink">
    <!-- Generator: Sketch 49.3 (51167) - http://www.bohemiancoding.com/sketch -->
    <title>Icon/Subway Line/Red - Mattapan/Small</title>
    <desc>Created with Sketch.</desc>
    <defs></defs>
    <g id="Icon/Subway-Line/Red---Mattapan/Small" stroke="none" stroke-width="1" fill="none" fill-rule="evenodd">
        <g id="icon-mattapan-line-small" fill-rule="nonzero">
            <path d="M8,0 C3.581722,-2.705415e-16 5.41083001e-16,3.581722 0,8 C-5.41083001e-16,12.418278 3.581722,16 8,16 C12.418278,16 16,12.418278 16,8 C16,3.581722 12.418278,2.04689834e-15 8,1.77635684e-15" id="Shape" fill="#DA291C"></path>
            <polygon id="Shape" fill="#FFFFFF" points="6.1684 4 8.0394 9.5015 8.0613 9.5015 9.8316 4 12.3077 4 12.3077 12 10.661 12 10.661 6.3306 10.638 6.3306 8.6773 12 7.3216 12 5.3609 6.3869 5.339 6.3869 5.339 12 3.6923 12 3.6923 4"></polygon>
        </g>
    </g>
</svg>