<?xml version="1.0" encoding="UTF-8"?>
<svg width="16px" height="16px" viewBox="0 0 16 16" version="1.1" xmlns="http://www.w3.org/2000/svg" xmlns:xlink="http://www.w3.org/1999/xlink">
    <!-- Generator: Sketch 49.3 (51167) - http://www.bohemiancoding.com/sketch -->
    <title>Icon/Subway Line/Orange/Small</title>
    <desc>Created with Sketch.</desc>
    <defs></defs>
    <g id="Icon/Subway-Line/Orange/Small" stroke="none" stroke-width="1" fill="none" fill-rule="evenodd">
        <g id="icon-orange-line-small" fill-rule="nonzero">
            <path d="M8,0 C3.581722,-2.705415e-16 5.41083001e-16,3.581722 0,8 C-5.41083001e-16,12.418278 3.581722,16 8,16 C12.418278,16 16,12.418278 16,8 C16,3.581722 12.418278,2.04689834e-15 8,1.77635684e-15" id="Shape" fill="#ED8B00"></path>
            <g id="Group" transform="translate(1.000000, 4.000000)" fill="#FFFFFF">
                <path d="M0.8183,2.5443 C0.968982574,2.10317425 1.20408755,1.69559556 1.5105,1.3443 C1.8177626,0.99916444 2.19655195,0.725139355 2.6205,0.5413 C3.08803928,0.341331439 3.5924537,0.242077237 4.1009,0.25 C4.6113749,0.24096926 5.11796902,0.340215901 5.5873,0.5412 C6.00917463,0.725644856 6.38588225,0.999645056 6.6913,1.3442 C6.9980238,1.69544414 7.23346618,2.10301895 7.3845,2.5442 C7.54876408,3.02388081 7.63029203,3.52799472 7.6256,4.035 C7.62976145,4.53216915 7.54820092,5.02633596 7.3845,5.4958 C7.23352826,5.9308567 6.99793407,6.33172709 6.6913,6.6753 C6.38435402,7.01449432 6.00776825,7.28339157 5.5873,7.4636 C5.11711662,7.66130318 4.61087995,7.75881096 4.1009,7.7499 C3.59279363,7.75785375 3.08855405,7.66040397 2.62,7.4637 C2.19746616,7.28408264 1.81880179,7.01516271 1.51,6.6754 C1.20367652,6.33177528 0.968419793,5.9309008 0.8178,5.4959 C0.654065067,5.02644194 0.572470685,4.53227497 0.5766,4.0351 C0.572101009,3.5280603 0.653831997,3.02394546 0.8183,2.5443 Z M2.2583,4.9135 C2.32398802,5.18747342 2.43785973,5.44758713 2.5946,5.6817 C2.74902389,5.90960572 2.95579255,6.09720627 3.1976,6.2288 C3.47604145,6.37351976 3.78694551,6.4444114 4.1006,6.4347 C4.41456172,6.44428405 4.7257571,6.37340448 5.0046,6.2288 C5.2459576,6.096956 5.45234659,5.90938886 5.6066,5.6817 C5.76374412,5.44780865 5.87764868,5.18761987 5.9429,4.9135 C6.01385673,4.62610827 6.04942042,4.33112108 6.0488,4.0351 C6.04961342,3.72739222 6.01406701,3.42066599 5.9429,3.1213 C5.8788052,2.8407045 5.7649018,2.57387994 5.6066,2.3335 C5.45352927,2.10339169 5.24696578,1.91381307 5.0046,1.781 C4.72567279,1.63662578 4.414538,1.56576001 4.1006,1.5751 C3.78696761,1.56561621 3.4761202,1.63649493 3.1976,1.781 C2.95478556,1.91356419 2.74784222,2.10317645 2.5946,2.3335 C2.43670388,2.57409764 2.32283263,2.84084689 2.2583,3.1213 C2.18795676,3.42079123 2.15275268,3.72745938 2.1534,4.0351 C2.15304254,4.3310635 2.188364,4.625991 2.2586,4.9135 L2.2583,4.9135 Z" id="Shape"></path>
                <polygon id="Shape" points="10.2758 0.4206 10.2758 6.2641 13.77 6.2641 13.77 7.5892 8.7 7.5892 8.7 0.4206"></polygon>
            </g>
        </g>
    </g>
</svg>