<?xml version="1.0" encoding="UTF-8"?>
<svg width="16px" height="16px" viewBox="0 0 16 16" version="1.1" xmlns="http://www.w3.org/2000/svg" xmlns:xlink="http://www.w3.org/1999/xlink">
    <!-- Generator: Sketch 49.3 (51167) - http://www.bohemiancoding.com/sketch -->
    <title>Icon/Subway Line/Red/Small</title>
    <desc>Created with Sketch.</desc>
    <defs></defs>
    <g id="Icon/Subway-Line/Red/Small" stroke="none" stroke-width="1" fill="none" fill-rule="evenodd">
        <g id="icon-red-line-small" fill-rule="nonzero">
            <path d="M8,0 C3.581722,-2.705415e-16 5.41083001e-16,3.581722 0,8 C-5.41083001e-16,12.418278 3.581722,16 8,16 C12.418278,16 16,12.418278 16,8 C16,3.581722 12.418278,2.04689834e-15 8,1.77635684e-15" id="Shape" fill="#DA291C"></path>
            <g id="Group" transform="translate(1.000000, 4.000000)" fill="#FFFFFF">
                <path d="M5.0155,0.25 C5.3259922,0.245122496 5.63447445,0.300617376 5.9238,0.4134 C6.18233288,0.514549349 6.41819736,0.666047838 6.6177,0.8591 C6.80801945,1.04540723 6.9578142,1.26900994 7.0577,1.5159 C7.16083197,1.7710517 7.21275145,2.04400276 7.2105,2.3192 C7.22058279,2.71868885 7.12466301,3.11371966 6.9325,3.4641 C6.72302157,3.80652795 6.40203249,4.06639138 6.0235,4.2 L6.0235,4.2212 C6.20876165,4.26765583 6.38110239,4.35545012 6.5276,4.478 C6.66061501,4.59332253 6.77105446,4.7323467 6.8533,4.888 C6.93928816,5.05155851 7.00113029,5.22671051 7.0369,5.408 C7.0753753,5.59538056 7.10209412,5.78498396 7.1169,5.9757 C7.1232,6.0946 7.1307,6.2347 7.1381,6.3957 C7.1455,6.5567 7.1572,6.7215 7.1742,6.8892 C7.19076194,7.05015426 7.21876611,7.20972461 7.258,7.3667 C7.29104402,7.50463426 7.3500997,7.63499798 7.432,7.7508 L5.7826,7.7508 C5.68423573,7.47713547 5.62737287,7.19029318 5.6139,6.8998 C5.5927,6.5708 5.5619,6.2557 5.5195,5.9543 C5.49524324,5.63649535 5.3703324,5.33469171 5.1629,5.0927 C4.91265849,4.88795085 4.59198503,4.78972687 4.27,4.8192 L2.6205,4.8192 L2.6205,7.75 L0.9715,7.75 L0.9715,0.25 L5.0155,0.25 Z M4.4276,3.6424 C4.73217102,3.66547918 5.03462232,3.57598917 5.2776,3.3909 C5.48656961,3.17191476 5.59028639,2.87305866 5.5619,2.5717 C5.58893619,2.27813823 5.48487789,1.98763146 5.2776,1.778 C5.03319727,1.59617571 4.73134536,1.5087452 4.4276,1.5318 L2.6205,1.5318 L2.6205,3.6424 L4.4276,3.6424 Z" id="Shape"></path>
                <polygon id="Shape" points="10.2043 0.25 10.2043 6.3631 13.86 6.3631 13.86 7.75 8.5554 7.75 8.5554 0.25"></polygon>
            </g>
        </g>
    </g>
</svg>